<svg width="28" height="21" viewBox="0 0 28 21" fill="none" xmlns="http://www.w3.org/2000/svg">
<path d="M0.150391 20.46V14.94H1.65039C3.17039 14.94 4.25038 14.62 4.89038 13.98C5.57038 13.34 5.91039 12.44 5.91039 11.28V9.84H1.05038V0H11.7904V11.7C11.7904 15.02 10.9904 17.32 9.3904 18.6C7.7904 19.84 5.69038 20.46 3.09038 20.46H0.150391ZM15.3904 20.46V14.94H16.8904C18.4104 14.94 19.4904 14.62 20.1304 13.98C20.8104 13.34 21.1504 12.44 21.1504 11.28V9.84H16.2904V0H27.0304V11.7C27.0304 15.02 26.2304 17.32 24.6304 18.6C23.0304 19.84 20.9304 20.46 18.3304 20.46H15.3904Z" fill="#C5D8F6"/>
</svg>
